STARTFONT 2.1
FONT -sun-arioso-medium-r-normal--17-170-75-75-p-88-adobe-fontspecific
SIZE 17 75 75
FONTBOUNDINGBOX 22 19 -3 -3

STARTPROPERTIES 28
FOUNDRY "sun"
FAMILY_NAME "arioso"
WEIGHT_NAME "medium"
SLANT "r"
SETWIDTH_NAME "normal"
ADD_STYLE_NAME ""
PIXEL_SIZE 18
POINT_SIZE 170
RESOLUTION_X 75
RESOLUTION_Y 75
SPACING "p"
AVERAGE_WIDTH 88
CHARSET_REGISTRY "adobe"
CHARSET_ENCODING "fontspecific"
COPYRIGHT "© 1999 Sun Microsystems, Inc."
RAW_PIXELSIZE 1000
RAW_POINTSIZE 964
RAW_ASCENT 897
RAW_DESCENT 198
RAW_AVERAGE_WIDTH 4987
FACE_NAME "AriosoNormal"
_XMBDFED_INFO "Edited with xmbdfed 2.4."
WEIGHT 10
X_HEIGHT -1
QUAD_WIDTH 9
DEFAULT_CHAR 4
FONT_DESCENT 3
FONT_ASCENT 16
ENDPROPERTIES

CHARS 195

STARTCHAR char32
ENCODING 32
SWIDTH 20 0
DWIDTH 4 0
BBX 0 0 0 0
BITMAP
ENDCHAR

STARTCHAR char33
ENCODING 33
SWIDTH 30 0
DWIDTH 6 0
BBX 4 11 2 0
BITMAP
10
20
20
20
20
40
40
40
00
00
80
ENDCHAR

STARTCHAR char34
ENCODING 34
SWIDTH 30 0
DWIDTH 6 0
BBX 5 4 2 9
BITMAP
48
48
D0
90
ENDCHAR

STARTCHAR char35
ENCODING 35
SWIDTH 50 0
DWIDTH 10 0
BBX 8 13 1 0
BITMAP
12
32
32
22
FF
24
24
24
FF
44
44
4C
48
ENDCHAR

STARTCHAR char36
ENCODING 36
SWIDTH 45 0
DWIDTH 9 0
BBX 9 15 0 -2
BITMAP
0100
1E80
2280
2200
2400
3400
1800
0E00
0B00
0900
1100
9200
7C00
2000
2000
ENDCHAR

STARTCHAR char37
ENCODING 37
SWIDTH 14 0
DWIDTH 13 0
BBX 11 11 1 0
BITMAP
3100
4900
8A00
8A00
9440
95A0
E920
0A20
1220
1240
1380
ENDCHAR

STARTCHAR char38
ENCODING 38
SWIDTH 40 0
DWIDTH 8 0
BBX 8 10 0 0
BITMAP
0E
12
14
14
29
49
85
86
8E
72
ENDCHAR

STARTCHAR char39
ENCODING 39
SWIDTH 20 0
DWIDTH 4 0
BBX 2 4 2 9
BITMAP
40
40
80
80
ENDCHAR

STARTCHAR char40
ENCODING 40
SWIDTH 30 0
DWIDTH 6 0
BBX 6 16 1 -3
BITMAP
04
04
08
10
30
20
60
40
40
C0
80
80
80
80
80
80
ENDCHAR

STARTCHAR char41
ENCODING 41
SWIDTH 30 0
DWIDTH 6 0
BBX 6 16 -1 -3
BITMAP
04
04
04
04
08
08
08
08
18
10
10
20
20
40
80
80
ENDCHAR

STARTCHAR char42
ENCODING 42
SWIDTH 30 0
DWIDTH 6 0
BBX 6 6 1 7
BITMAP
30
70
3C
D0
28
20
ENDCHAR

STARTCHAR char43
ENCODING 43
SWIDTH 4 0
DWIDTH 11 0
BBX 10 10 1 0
BITMAP
0400
0400
0400
0400
FFC0
0400
0400
0400
0400
0400
ENDCHAR

STARTCHAR char44
ENCODING 44
SWIDTH 20 0
DWIDTH 4 0
BBX 2 3 0 -2
BITMAP
40
40
40
ENDCHAR

STARTCHAR char45
ENCODING 45
SWIDTH 30 0
DWIDTH 6 0
BBX 5 1 0 3
BITMAP
F8
ENDCHAR

STARTCHAR char46
ENCODING 46
SWIDTH 20 0
DWIDTH 4 0
BBX 1 1 1 0
BITMAP
80
ENDCHAR

STARTCHAR char47
ENCODING 47
SWIDTH 40 0
DWIDTH 8 0
BBX 8 12 0 0
BITMAP
02
02
02
04
08
08
10
20
20
40
40
80
ENDCHAR

STARTCHAR char48
ENCODING 48
SWIDTH 45 0
DWIDTH 9 0
BBX 8 11 0 0
BITMAP
0E
12
21
61
41
43
C2
82
84
44
78
ENDCHAR

STARTCHAR char49
ENCODING 49
SWIDTH 45 0
DWIDTH 9 0
BBX 5 11 2 0
BITMAP
08
18
70
90
10
20
20
20
40
40
40
ENDCHAR

STARTCHAR char50
ENCODING 50
SWIDTH 45 0
DWIDTH 9 0
BBX 8 11 0 0
BITMAP
0E
11
21
21
22
06
08
30
40
80
FC
ENDCHAR

STARTCHAR char51
ENCODING 51
SWIDTH 45 0
DWIDTH 9 0
BBX 7 11 0 0
BITMAP
0C
02
02
02
04
1C
04
04
04
0C
F8
ENDCHAR

STARTCHAR char52
ENCODING 52
SWIDTH 45 0
DWIDTH 9 0
BBX 9 11 -1 0
BITMAP
0080
0080
0380
0500
0900
1200
2200
4200
FF80
0400
0400
ENDCHAR

STARTCHAR char53
ENCODING 53
SWIDTH 45 0
DWIDTH 9 0
BBX 8 11 0 0
BITMAP
1F
10
10
20
3C
02
02
02
06
04
F8
ENDCHAR

STARTCHAR char54
ENCODING 54
SWIDTH 45 0
DWIDTH 9 0
BBX 7 11 1 0
BITMAP
04
08
10
20
78
44
84
84
84
88
F0
ENDCHAR

STARTCHAR char55
ENCODING 55
SWIDTH 45 0
DWIDTH 9 0
BBX 8 11 1 0
BITMAP
30
5F
02
02
04
08
10
30
20
40
C0
ENDCHAR

STARTCHAR char56
ENCODING 56
SWIDTH 45 0
DWIDTH 9 0
BBX 8 11 0 0
BITMAP
06
19
11
11
16
08
74
82
82
84
7C
ENDCHAR

STARTCHAR char57
ENCODING 57
SWIDTH 45 0
DWIDTH 9 0
BBX 8 12 0 -1
BITMAP
0E
11
21
61
41
42
7E
04
08
30
60
40
ENDCHAR

STARTCHAR char58
ENCODING 58
SWIDTH 25 0
DWIDTH 5 0
BBX 3 6 1 0
BITMAP
20
00
00
00
00
80
ENDCHAR

STARTCHAR char59
ENCODING 59
SWIDTH 25 0
DWIDTH 5 0
BBX 4 8 0 -2
BITMAP
10
00
00
00
00
60
40
40
ENDCHAR

STARTCHAR char60
ENCODING 60
SWIDTH 4 0
DWIDTH 11 0
BBX 9 9 1 0
BITMAP
0080
0700
1C00
7000
8000
6000
1C00
0700
0180
ENDCHAR

STARTCHAR char61
ENCODING 61
SWIDTH 4 0
DWIDTH 11 0
BBX 12 4 0 3
BITMAP
FFF0
0000
0000
FFF0
ENDCHAR

STARTCHAR char62
ENCODING 62
SWIDTH 4 0
DWIDTH 11 0
BBX 9 9 1 0
BITMAP
8000
6000
1C00
0700
0180
0700
1C00
7000
8000
ENDCHAR

STARTCHAR char63
ENCODING 63
SWIDTH 35 0
DWIDTH 7 0
BBX 6 12 1 0
BITMAP
18
24
44
44
58
30
60
40
40
20
00
80
ENDCHAR

STARTCHAR char64
ENCODING 64
SWIDTH 39 0
DWIDTH 18 0
BBX 12 13 3 0
BITMAP
0F80
30C0
4020
4F50
9990
B090
B090
A190
B320
9DC0
4020
2040
1F80
ENDCHAR

STARTCHAR char65
ENCODING 65
SWIDTH 29 0
DWIDTH 16 0
BBX 17 12 -1 0
BITMAP
000300
000500
000A00
000A00
001600
001C00
3FE780
604800
404800
809800
831180
7C1F00
ENDCHAR

STARTCHAR char66
ENCODING 66
SWIDTH 19 0
DWIDTH 14 0
BBX 13 12 -1 0
BITMAP
0FF0
3088
4088
4088
81B0
8120
8110
8108
0208
0410
09F0
1E00
ENDCHAR

STARTCHAR char67
ENCODING 67
SWIDTH 50 0
DWIDTH 10 0
BBX 11 12 0 0
BITMAP
0FC0
1020
2220
6C20
5040
D080
A080
A300
9C00
8000
4040
7F80
ENDCHAR

STARTCHAR char68
ENCODING 68
SWIDTH 24 0
DWIDTH 15 0
BBX 16 12 -1 0
BITMAP
0FFC
1022
2041
4041
4081
8083
8182
8102
8104
0208
0230
07C0
ENDCHAR

STARTCHAR char69
ENCODING 69
SWIDTH 50 0
DWIDTH 10 0
BBX 10 12 0 0
BITMAP
03C0
0440
0480
0500
0400
1800
2000
4040
8040
8040
8180
7E00
ENDCHAR

STARTCHAR char70
ENCODING 70
SWIDTH 29 0
DWIDTH 16 0
BBX 17 15 -1 -3
BITMAP
03F800
1C0780
300400
200800
401800
801000
81FF80
805000
806000
806000
40E000
00E000
014000
028000
030000
ENDCHAR

STARTCHAR char71
ENCODING 71
SWIDTH 24 0
DWIDTH 15 0
BBX 14 15 0 -3
BITMAP
03F8
0608
0808
0810
1070
1090
3310
3C10
3030
E020
20E0
1F38
0060
0180
0300
ENDCHAR

STARTCHAR char72
ENCODING 72
SWIDTH 29 0
DWIDTH 16 0
BBX 15 13 0 0
BITMAP
0602
7B8E
8094
80B8
0120
01C0
0242
0E82
1282
2502
4D04
9918
E1E0
ENDCHAR

STARTCHAR char73
ENCODING 73
SWIDTH 4 0
DWIDTH 11 0
BBX 12 12 -1 0
BITMAP
1FF0
2010
2010
0020
0020
0060
0040
3F40
4080
80E0
8300
7E00
ENDCHAR

STARTCHAR char74
ENCODING 74
SWIDTH 4 0
DWIDTH 11 0
BBX 13 15 -1 -3
BITMAP
07F8
0820
1020
2040
4040
4040
80C0
8080
80E0
4180
4F00
1100
2200
4400
7800
ENDCHAR

STARTCHAR char75
ENCODING 75
SWIDTH 29 0
DWIDTH 16 0
BBX 17 12 0 0
BITMAP
3FC200
404400
004800
00D000
00A000
00C000
008000
010000
018000
024000
042380
F81C00
ENDCHAR

STARTCHAR char76
ENCODING 76
SWIDTH 14 0
DWIDTH 13 0
BBX 14 12 0 0
BITMAP
0078
0088
0108
0108
0310
0220
0240
0280
0200
0400
FF0C
E1F0
ENDCHAR

STARTCHAR char77
ENCODING 77
SWIDTH 39 0
DWIDTH 18 0
BBX 19 12 -1 0
BITMAP
000E60
0012A0
002740
002640
0046C0
004C80
008C80
009D00
011100
011100
862200
F821C0
ENDCHAR

STARTCHAR char78
ENCODING 78
SWIDTH 29 0
DWIDTH 16 0
BBX 17 12 -1 0
BITMAP
078000
185F00
206200
404400
40C400
814800
818800
829800
829000
051000
071080
060F00
ENDCHAR

STARTCHAR char79
ENCODING 79
SWIDTH 4 0
DWIDTH 11 0
BBX 10 12 0 0
BITMAP
17C0
1840
3040
5040
4040
8040
8080
8080
8100
8100
C600
3800
ENDCHAR

STARTCHAR char80
ENCODING 80
SWIDTH 29 0
DWIDTH 16 0
BBX 16 15 -1 -3
BITMAP
03FC
0C22
1041
2081
4081
8181
8101
8102
8306
0204
0218
07E0
0400
0400
0400
ENDCHAR

STARTCHAR char81
ENCODING 81
SWIDTH 50 0
DWIDTH 10 0
BBX 11 15 0 -3
BITMAP
1F80
2040
4040
4040
8040
80C0
8080
8100
8100
8600
7800
FE00
0300
01A0
0040
ENDCHAR

STARTCHAR char82
ENCODING 82
SWIDTH 19 0
DWIDTH 14 0
BBX 15 12 -1 0
BITMAP
07FC
1842
2082
2182
4104
810C
8318
82E0
8300
8680
0446
0438
ENDCHAR

STARTCHAR char83
ENCODING 83
SWIDTH 50 0
DWIDTH 10 0
BBX 10 12 0 0
BITMAP
0780
0880
0880
0880
0400
0600
0200
3F00
C1C0
8100
8600
FC00
ENDCHAR

STARTCHAR char84
ENCODING 84
SWIDTH 9 0
DWIDTH 12 0
BBX 16 13 -1 -1
BITMAP
1FFF
2008
4008
8010
8010
8020
4020
4020
3F40
1040
2080
2180
1E00
ENDCHAR

STARTCHAR char85
ENCODING 85
SWIDTH 24 0
DWIDTH 15 0
BBX 16 12 -1 0
BITMAP
03C1
1C43
2046
2086
408C
818C
8118
8328
8258
8650
0590
060E
ENDCHAR

STARTCHAR char86
ENCODING 86
SWIDTH 24 0
DWIDTH 15 0
BBX 16 12 -1 0
BITMAP
07E3
0841
3041
4081
4101
8102
8102
8204
4204
4208
0210
01E0
ENDCHAR

STARTCHAR char87
ENCODING 87
SWIDTH 39 0
DWIDTH 18 0
BBX 18 12 -1 0
BITMAP
7FE840
409840
411840
013040
036040
026040
02A040
06C080
054080
064100
044600
043800
ENDCHAR

STARTCHAR char88
ENCODING 88
SWIDTH 29 0
DWIDTH 16 0
BBX 18 12 -1 0
BITMAP
07C7C0
182C00
203800
407000
806000
83F880
80C080
818080
028100
048200
088400
707C00
ENDCHAR

STARTCHAR char89
ENCODING 89
SWIDTH 24 0
DWIDTH 15 0
BBX 16 15 -1 -3
BITMAP
0F83
3086
208C
410C
810C
8318
8228
8628
4450
4490
0910
0FE0
0240
0440
0780
ENDCHAR

STARTCHAR char90
ENCODING 90
SWIDTH 24 0
DWIDTH 15 0
BBX 16 12 -1 0
BITMAP
07FF
0C02
0886
108C
1098
20F0
2120
2240
3E80
0100
0201
FFFE
ENDCHAR

STARTCHAR char91
ENCODING 91
SWIDTH 30 0
DWIDTH 6 0
BBX 8 15 -1 -3
BITMAP
07
04
04
0C
08
08
10
10
30
20
20
60
40
40
40
ENDCHAR

STARTCHAR char92
ENCODING 92
SWIDTH 25 0
DWIDTH 5 0
BBX 5 13 0 0
BITMAP
80
80
40
40
40
20
20
20
10
10
10
08
08
ENDCHAR

STARTCHAR char93
ENCODING 93
SWIDTH 30 0
DWIDTH 6 0
BBX 8 15 -2 -3
BITMAP
02
03
02
02
04
04
0C
08
08
10
10
30
20
20
60
ENDCHAR

STARTCHAR char94
ENCODING 94
SWIDTH 0 0
DWIDTH 0 0
BBX 3 3 1 13
BITMAP
60
A0
A0
ENDCHAR

STARTCHAR char95
ENCODING 95
SWIDTH 50 0
DWIDTH 10 0
BBX 10 1 0 -2
BITMAP
FFC0
ENDCHAR

STARTCHAR char96
ENCODING 96
SWIDTH 0 0
DWIDTH 0 0
BBX 3 3 -1 8
BITMAP
80
40
20
ENDCHAR

STARTCHAR char97
ENCODING 97
SWIDTH 45 0
DWIDTH 9 0
BBX 8 7 0 0
BITMAP
1E
66
44
84
88
98
EF
ENDCHAR

STARTCHAR char98
ENCODING 98
SWIDTH 35 0
DWIDTH 7 0
BBX 7 12 0 0
BITMAP
18
10
10
20
28
74
54
54
58
88
96
E0
ENDCHAR

STARTCHAR char99
ENCODING 99
SWIDTH 30 0
DWIDTH 6 0
BBX 7 7 0 0
BITMAP
3C
24
48
90
80
8E
F0
ENDCHAR

STARTCHAR char100
ENCODING 100
SWIDTH 40 0
DWIDTH 8 0
BBX 8 12 0 0
BITMAP
01
01
03
02
02
3C
44
44
88
88
98
EF
ENDCHAR

STARTCHAR char101
ENCODING 101
SWIDTH 25 0
DWIDTH 5 0
BBX 5 7 0 0
BITMAP
30
50
90
A0
C0
80
F0
ENDCHAR

STARTCHAR char102
ENCODING 102
SWIDTH 30 0
DWIDTH 6 0
BBX 7 15 -1 -3
BITMAP
06
06
06
0A
0A
14
18
58
F0
E0
A2
7C
40
C0
C0
ENDCHAR

STARTCHAR char103
ENCODING 103
SWIDTH 45 0
DWIDTH 9 0
BBX 7 10 0 -3
BITMAP
1E
66
44
84
88
98
EE
10
70
E0
ENDCHAR

STARTCHAR char104
ENCODING 104
SWIDTH 40 0
DWIDTH 8 0
BBX 8 12 0 0
BITMAP
10
10
20
20
20
4C
54
64
A8
D8
D0
9E
ENDCHAR

STARTCHAR char105
ENCODING 105
SWIDTH 20 0
DWIDTH 4 0
BBX 4 10 0 0
BITMAP
20
00
00
40
40
40
40
80
80
E0
ENDCHAR

STARTCHAR char106
ENCODING 106
SWIDTH 25 0
DWIDTH 5 0
BBX 6 13 -1 -3
BITMAP
04
00
00
08
78
90
90
30
E0
A0
A0
C0
C0
ENDCHAR

STARTCHAR char107
ENCODING 107
SWIDTH 40 0
DWIDTH 8 0
BBX 8 12 0 0
BITMAP
10
10
30
20
20
4E
52
64
B8
C0
B0
8F
ENDCHAR

STARTCHAR char108
ENCODING 108
SWIDTH 20 0
DWIDTH 4 0
BBX 5 12 0 0
BITMAP
18
10
10
20
20
20
40
40
80
80
80
F0
ENDCHAR

STARTCHAR char109
ENCODING 109
SWIDTH 9 0
DWIDTH 12 0
BBX 12 7 0 0
BITMAP
4CC0
5540
6E80
AD80
CD80
CD00
89E0
ENDCHAR

STARTCHAR char110
ENCODING 110
SWIDTH 40 0
DWIDTH 8 0
BBX 8 7 0 0
BITMAP
44
5C
64
A8
D8
D0
9F
ENDCHAR

STARTCHAR char111
ENCODING 111
SWIDTH 35 0
DWIDTH 7 0
BBX 7 8 0 0
BITMAP
08
38
58
58
98
8E
90
E0
ENDCHAR

STARTCHAR char112
ENCODING 112
SWIDTH 45 0
DWIDTH 9 0
BBX 10 10 -1 -3
BITMAP
0E00
3900
5100
9100
2200
F400
BFC0
4000
4000
C000
ENDCHAR

STARTCHAR char113
ENCODING 113
SWIDTH 40 0
DWIDTH 8 0
BBX 8 10 0 -3
BITMAP
3E
44
44
84
88
88
F6
1C
18
10
ENDCHAR

STARTCHAR char114
ENCODING 114
SWIDTH 30 0
DWIDTH 6 0
BBX 6 7 0 0
BITMAP
28
50
60
F0
D0
CC
80
ENDCHAR

STARTCHAR char115
ENCODING 115
SWIDTH 30 0
DWIDTH 6 0
BBX 6 7 0 0
BITMAP
30
30
20
20
E0
A0
F8
ENDCHAR

STARTCHAR char116
ENCODING 116
SWIDTH 25 0
DWIDTH 5 0
BBX 5 10 0 0
BITMAP
10
20
60
70
40
40
80
80
98
E0
ENDCHAR

STARTCHAR char117
ENCODING 117
SWIDTH 40 0
DWIDTH 8 0
BBX 8 7 0 0
BITMAP
66
44
4C
48
88
88
FE
ENDCHAR

STARTCHAR char118
ENCODING 118
SWIDTH 40 0
DWIDTH 8 0
BBX 8 7 0 0
BITMAP
5C
54
54
4C
8C
93
E0
ENDCHAR

STARTCHAR char119
ENCODING 119
SWIDTH 4 0
DWIDTH 11 0
BBX 12 8 -1 0
BITMAP
0040
22C0
22C0
64C0
44C0
CCE0
9990
EE00
ENDCHAR

STARTCHAR char120
ENCODING 120
SWIDTH 45 0
DWIDTH 9 0
BBX 9 7 -1 0
BITMAP
7380
8C80
0F00
0800
7800
9880
E700
ENDCHAR

STARTCHAR char121
ENCODING 121
SWIDTH 40 0
DWIDTH 8 0
BBX 8 10 0 -3
BITMAP
24
44
44
48
88
88
F6
18
60
E0
ENDCHAR

STARTCHAR char122
ENCODING 122
SWIDTH 30 0
DWIDTH 6 0
BBX 6 7 0 0
BITMAP
7C
88
90
60
C0
80
FC
ENDCHAR

STARTCHAR char123
ENCODING 123
SWIDTH 30 0
DWIDTH 6 0
BBX 4 15 1 -3
BITMAP
70
60
60
60
40
40
40
80
40
40
60
40
40
40
30
ENDCHAR

STARTCHAR char124
ENCODING 124
SWIDTH 25 0
DWIDTH 5 0
BBX 1 13 2 0
BITMAP
80
80
80
80
80
80
80
80
80
80
80
80
80
ENDCHAR

STARTCHAR char125
ENCODING 125
SWIDTH 30 0
DWIDTH 6 0
BBX 4 15 1 -3
BITMAP
C0
20
20
20
20
20
20
10
20
20
60
20
20
20
C0
ENDCHAR

STARTCHAR char126
ENCODING 126
SWIDTH 0 0
DWIDTH 0 0
BBX 6 1 0 14
BITMAP
7C
ENDCHAR

STARTCHAR char128
ENCODING 128
SWIDTH 50 0
DWIDTH 10 0
BBX 12 12 -2 0
BITMAP
03F0
0410
7800
1F00
71C0
3E20
2100
2000
2000
2000
1010
1FE0
ENDCHAR

STARTCHAR char130
ENCODING 130
SWIDTH 20 0
DWIDTH 4 0
BBX 2 3 0 -2
BITMAP
40
40
40
ENDCHAR

STARTCHAR char131
ENCODING 131
SWIDTH 0 0
DWIDTH 0 0
BBX 3 3 1 13
BITMAP
60
A0
A0
ENDCHAR

STARTCHAR char132
ENCODING 132
SWIDTH 30 0
DWIDTH 6 0
BBX 5 3 0 -2
BITMAP
D8
50
90
ENDCHAR

STARTCHAR char133
ENCODING 133
SWIDTH 39 0
DWIDTH 18 0
BBX 14 2 2 0
BITMAP
C30C
C30C
ENDCHAR

STARTCHAR char134
ENCODING 134
SWIDTH 30 0
DWIDTH 6 0
BBX 8 14 0 -2
BITMAP
0C
08
08
08
FF
10
20
20
20
40
40
40
80
80
ENDCHAR

STARTCHAR char136
ENCODING 136
SWIDTH 0 0
DWIDTH 0 0
BBX 3 3 -1 8
BITMAP
60
A0
A0
ENDCHAR

STARTCHAR char139
ENCODING 139
SWIDTH 30 0
DWIDTH 6 0
BBX 2 6 2 2
BITMAP
40
40
80
80
C0
40
ENDCHAR

STARTCHAR char140
ENCODING 140
SWIDTH 39 0
DWIDTH 18 0
BBX 18 13 -1 0
BITMAP
000300
0BC2C0
142440
282480
282500
402400
C07800
806000
804040
80C040
808040
43C180
3C7E00
ENDCHAR

STARTCHAR char145
ENCODING 145
SWIDTH 20 0
DWIDTH 4 0
BBX 2 4 2 9
BITMAP
40
40
80
80
ENDCHAR

STARTCHAR char146
ENCODING 146
SWIDTH 20 0
DWIDTH 4 0
BBX 3 4 2 9
BITMAP
60
20
40
80
ENDCHAR

STARTCHAR char147
ENCODING 147
SWIDTH 30 0
DWIDTH 6 0
BBX 5 4 2 9
BITMAP
48
48
90
90
ENDCHAR

STARTCHAR char148
ENCODING 148
SWIDTH 30 0
DWIDTH 6 0
BBX 5 4 2 9
BITMAP
68
48
50
90
ENDCHAR

STARTCHAR char149
ENCODING 149
SWIDTH 30 0
DWIDTH 6 0
BBX 5 5 0 4
BITMAP
70
F8
F8
F8
70
ENDCHAR

STARTCHAR char150
ENCODING 150
SWIDTH 45 0
DWIDTH 9 0
BBX 8 1 0 3
BITMAP
FF
ENDCHAR

STARTCHAR char151
ENCODING 151
SWIDTH 4 0
DWIDTH 11 0
BBX 12 1 0 5
BITMAP
FFF0
ENDCHAR

STARTCHAR char152
ENCODING 152
SWIDTH 0 0
DWIDTH 0 0
BBX 6 2 -2 8
BITMAP
74
B8
ENDCHAR

STARTCHAR char153
ENCODING 153
SWIDTH 24 0
DWIDTH 15 0
BBX 14 7 0 5
BITMAP
FF0C
AD18
2198
2198
21A8
2168
735C
ENDCHAR

STARTCHAR char155
ENCODING 155
SWIDTH 30 0
DWIDTH 6 0
BBX 2 6 2 2
BITMAP
80
80
40
40
C0
80
ENDCHAR

STARTCHAR char156
ENCODING 156
SWIDTH 50 0
DWIDTH 10 0
BBX 11 7 0 0
BITMAP
1980
6680
4480
8700
8E00
9860
E780
ENDCHAR

STARTCHAR char159
ENCODING 159
SWIDTH 24 0
DWIDTH 15 0
BBX 16 17 -1 -3
BITMAP
00F0
0000
0F83
3086
208C
410C
810C
8318
8228
8628
4450
4490
0910
0FE0
0240
0440
0780
ENDCHAR

STARTCHAR char160
ENCODING 160
SWIDTH 20 0
DWIDTH 4 0
BBX 0 0 0 0
BITMAP
ENDCHAR

STARTCHAR char161
ENCODING 161
SWIDTH 30 0
DWIDTH 6 0
BBX 5 11 0 0
BITMAP
08
00
00
10
10
20
20
60
40
C0
40
ENDCHAR

STARTCHAR char162
ENCODING 162
SWIDTH 30 0
DWIDTH 6 0
BBX 6 11 0 -2
BITMAP
08
08
34
34
58
90
A0
AC
B8
40
40
ENDCHAR

STARTCHAR char163
ENCODING 163
SWIDTH 4 0
DWIDTH 11 0
BBX 12 12 0 0
BITMAP
01C0
0630
0410
0400
0400
3F80
0400
0400
0400
0400
F800
FF80
ENDCHAR

STARTCHAR char164
ENCODING 164
SWIDTH 0 0
DWIDTH 0 0
BBX 3 2 2 13
BITMAP
C0
80
ENDCHAR

STARTCHAR char165
ENCODING 165
SWIDTH 0 0
DWIDTH 0 0
BBX 4 2 1 13
BITMAP
70
40
ENDCHAR

STARTCHAR char167
ENCODING 167
SWIDTH 40 0
DWIDTH 8 0
BBX 9 16 -1 -3
BITMAP
0300
0C80
0880
0800
0C00
1400
2200
2200
2200
3200
1600
0800
0800
8800
9800
6000
ENDCHAR

STARTCHAR char168
ENCODING 168
SWIDTH 0 0
DWIDTH 0 0
BBX 3 1 -1 8
BITMAP
A0
ENDCHAR

STARTCHAR char169
ENCODING 169
SWIDTH 14 0
DWIDTH 13 0
BBX 12 11 0 0
BITMAP
0F80
3040
47A0
4890
9090
9010
9010
4890
4720
3040
0F80
ENDCHAR

STARTCHAR char170
ENCODING 170
SWIDTH 0 0
DWIDTH 0 0
BBX 4 1 1 13
BITMAP
90
ENDCHAR

STARTCHAR char171
ENCODING 171
SWIDTH 35 0
DWIDTH 7 0
BBX 6 4 0 2
BITMAP
28
50
B0
58
ENDCHAR

STARTCHAR char172
ENCODING 172
SWIDTH 9 0
DWIDTH 12 0
BBX 11 5 0 0
BITMAP
FFE0
0020
0020
0020
0020
ENDCHAR

STARTCHAR char174
ENCODING 174
SWIDTH 14 0
DWIDTH 13 0
BBX 12 11 0 0
BITMAP
0F80
3040
4F20
4890
8990
8E10
8B10
4990
5CE0
2040
1F80
ENDCHAR

STARTCHAR char176
ENCODING 176
SWIDTH 20 0
DWIDTH 4 0
BBX 5 6 2 6
BITMAP
60
90
88
88
90
60
ENDCHAR

STARTCHAR char177
ENCODING 177
SWIDTH 45 0
DWIDTH 9 0
BBX 9 11 0 0
BITMAP
0800
0800
0800
0800
FF80
0800
0800
0800
0800
0000
FF80
ENDCHAR

STARTCHAR char180
ENCODING 180
SWIDTH 0 0
DWIDTH 0 0
BBX 3 3 0 8
BITMAP
60
40
80
ENDCHAR

STARTCHAR char182
ENCODING 182
SWIDTH 9 0
DWIDTH 12 0
BBX 8 15 2 -3
BITMAP
7F
E2
E2
E2
E2
62
22
22
22
22
22
22
22
22
22
ENDCHAR

STARTCHAR char183
ENCODING 183
SWIDTH 15 0
DWIDTH 3 0
BBX 2 2 1 4
BITMAP
C0
C0
ENDCHAR

STARTCHAR char184
ENCODING 184
SWIDTH 0 0
DWIDTH 0 0
BBX 2 4 -3 -3
BITMAP
40
C0
40
C0
ENDCHAR

STARTCHAR char186
ENCODING 186
SWIDTH 0 0
DWIDTH 0 0
BBX 6 1 0 14
BITMAP
7C
ENDCHAR

STARTCHAR char187
ENCODING 187
SWIDTH 35 0
DWIDTH 7 0
BBX 6 4 0 2
BITMAP
58
28
48
50
ENDCHAR

STARTCHAR char191
ENCODING 191
SWIDTH 35 0
DWIDTH 7 0
BBX 6 11 0 0
BITMAP
04
00
18
04
0C
18
30
44
84
88
70
ENDCHAR

STARTCHAR char192
ENCODING 192
SWIDTH 29 0
DWIDTH 16 0
BBX 17 15 -1 0
BITMAP
002000
002000
000100
000700
000700
000A00
000A00
001600
001C00
3FE780
604800
404800
809800
831180
7C1F00
ENDCHAR

STARTCHAR char193
ENCODING 193
SWIDTH 29 0
DWIDTH 16 0
BBX 17 15 -1 0
BITMAP
003000
002000
000100
000700
000700
000A00
000A00
001600
001C00
3FE780
604800
404800
809800
831180
7C1F00
ENDCHAR

STARTCHAR char194
ENCODING 194
SWIDTH 29 0
DWIDTH 16 0
BBX 17 15 -1 0
BITMAP
007000
004800
000100
000700
000700
000A00
000A00
001600
001C00
3FE780
604800
404800
809800
831180
7C1F00
ENDCHAR

STARTCHAR char195
ENCODING 195
SWIDTH 29 0
DWIDTH 16 0
BBX 17 15 -1 0
BITMAP
007C00
000000
000100
000700
000700
000A00
000A00
001600
001C00
3FE780
604800
404800
809800
831180
7C1F00
ENDCHAR

STARTCHAR char196
ENCODING 196
SWIDTH 29 0
DWIDTH 16 0
BBX 18 15 -1 0
BITMAP
000080
0002C0
000100
000700
000700
000A00
000A00
001600
001C00
3FE780
604C00
404800
809800
831100
7C1E00
ENDCHAR

STARTCHAR char197
ENCODING 197
SWIDTH 29 0
DWIDTH 16 0
BBX 17 16 -1 0
BITMAP
000380
000280
000380
000100
000700
000700
000A00
000A00
001600
001C00
3FE780
604800
404800
809800
831180
7C1F00
ENDCHAR

STARTCHAR char198
ENCODING 198
SWIDTH 44 0
DWIDTH 19 0
BBX 20 13 -1 0
BITMAP
000CC0
001D20
001F20
002A40
002A40
005A00
005600
0FF800
30B010
40A010
812020
822040
7C1F80
ENDCHAR

STARTCHAR char199
ENCODING 199
SWIDTH 50 0
DWIDTH 10 0
BBX 11 15 0 -3
BITMAP
0FC0
1020
2220
6C20
5840
D080
A080
A300
9C00
8000
4040
5F80
3000
1000
6000
ENDCHAR

STARTCHAR char200
ENCODING 200
SWIDTH 50 0
DWIDTH 10 0
BBX 10 15 0 0
BITMAP
0300
0100
0000
03C0
0440
0480
0500
0400
1800
2000
4040
8040
8040
8180
7E00
ENDCHAR

STARTCHAR char201
ENCODING 201
SWIDTH 50 0
DWIDTH 10 0
BBX 10 15 0 0
BITMAP
0100
0200
0000
03C0
0440
0480
0500
0400
1800
2000
4040
8040
8040
8180
7E00
ENDCHAR

STARTCHAR char202
ENCODING 202
SWIDTH 50 0
DWIDTH 10 0
BBX 10 16 0 0
BITMAP
0100
0280
0480
0000
03C0
0440
0480
0500
0400
1800
2000
4040
8040
8040
8180
7E00
ENDCHAR

STARTCHAR char203
ENCODING 203
SWIDTH 50 0
DWIDTH 10 0
BBX 11 14 0 0
BITMAP
04E0
0000
07C0
0440
0480
0500
0400
1800
2000
4040
8040
8040
8180
7E00
ENDCHAR

STARTCHAR char204
ENCODING 204
SWIDTH 4 0
DWIDTH 11 0
BBX 12 15 -1 0
BITMAP
0180
0040
0000
1FF0
2010
2010
0020
0020
0060
0040
3F40
4080
80E0
8300
7E00
ENDCHAR

STARTCHAR char205
ENCODING 205
SWIDTH 4 0
DWIDTH 11 0
BBX 12 15 -1 0
BITMAP
00C0
0080
0000
1FF0
2010
2010
0020
0020
0060
0040
3F40
4080
80E0
8300
7E00
ENDCHAR

STARTCHAR char206
ENCODING 206
SWIDTH 4 0
DWIDTH 11 0
BBX 12 16 -1 0
BITMAP
0080
0140
0140
0000
1FF0
2010
2010
0020
0020
0060
0040
3F40
4080
80E0
8300
7C00
ENDCHAR

STARTCHAR char207
ENCODING 207
SWIDTH 4 0
DWIDTH 11 0
BBX 12 14 -1 0
BITMAP
0140
0000
1FF0
2010
2020
0020
0060
0040
0040
3F80
4080
80E0
8300
7E00
ENDCHAR

STARTCHAR char209
ENCODING 209
SWIDTH 29 0
DWIDTH 16 0
BBX 17 15 -1 0
BITMAP
007C00
000000
000080
078700
185300
206200
404400
40C400
814800
818800
829800
829000
051000
071080
060F00
ENDCHAR

STARTCHAR char210
ENCODING 210
SWIDTH 4 0
DWIDTH 11 0
BBX 10 15 0 0
BITMAP
0300
0080
0000
17C0
1840
3040
5040
4040
8040
8080
8080
8100
8100
C600
3800
ENDCHAR

STARTCHAR char211
ENCODING 211
SWIDTH 4 0
DWIDTH 11 0
BBX 10 15 0 0
BITMAP
0180
0100
0000
17C0
1840
3040
5040
4040
8040
8080
8080
8100
8100
C600
3800
ENDCHAR

STARTCHAR char212
ENCODING 212
SWIDTH 4 0
DWIDTH 11 0
BBX 10 16 0 0
BITMAP
0100
0280
0280
0000
17C0
1840
3040
5040
4040
8040
8080
8080
8100
8100
C600
3800
ENDCHAR

STARTCHAR char213
ENCODING 213
SWIDTH 4 0
DWIDTH 11 0
BBX 11 15 0 0
BITMAP
03E0
0000
0000
17C0
1840
3040
5040
4040
8040
8080
8080
8100
8100
C600
3800
ENDCHAR

STARTCHAR char214
ENCODING 214
SWIDTH 4 0
DWIDTH 11 0
BBX 10 14 0 0
BITMAP
0480
0000
17C0
1840
3040
5040
4040
8040
8040
8080
8100
8100
C600
3800
ENDCHAR

STARTCHAR char216
ENCODING 216
SWIDTH 4 0
DWIDTH 11 0
BBX 10 12 0 0
BITMAP
1780
18C0
2940
7240
4440
8440
8880
9080
A080
C100
4600
B800
ENDCHAR

STARTCHAR char217
ENCODING 217
SWIDTH 24 0
DWIDTH 15 0
BBX 16 15 -1 0
BITMAP
0060
0020
0001
07C1
1842
2046
2086
408C
818C
8118
8328
8258
8650
0590
060E
ENDCHAR

STARTCHAR char218
ENCODING 218
SWIDTH 24 0
DWIDTH 15 0
BBX 16 15 -1 0
BITMAP
0030
0020
0001
07C1
1842
2046
2086
408C
818C
8118
8328
8258
8650
0590
060E
ENDCHAR

STARTCHAR char219
ENCODING 219
SWIDTH 24 0
DWIDTH 15 0
BBX 16 16 -1 0
BITMAP
0020
0050
0050
0001
07C1
1842
2046
2086
408C
818C
8118
8328
8258
8650
0590
060E
ENDCHAR

STARTCHAR char220
ENCODING 220
SWIDTH 24 0
DWIDTH 15 0
BBX 16 14 -1 0
BITMAP
0013
0001
07C1
1841
2046
4086
408C
818C
8118
8328
8258
8650
0590
060E
ENDCHAR

STARTCHAR char223
ENCODING 223
SWIDTH 50 0
DWIDTH 10 0
BBX 10 15 -1 -3
BITMAP
0380
0480
0900
0A00
1400
1600
1100
3080
2080
3D80
E300
7C00
4000
4000
8000
ENDCHAR

STARTCHAR char224
ENCODING 224
SWIDTH 45 0
DWIDTH 9 0
BBX 8 11 0 0
BITMAP
10
08
08
00
3E
44
44
84
88
98
EF
ENDCHAR

STARTCHAR char225
ENCODING 225
SWIDTH 45 0
DWIDTH 9 0
BBX 8 11 0 0
BITMAP
04
08
08
00
3E
44
44
84
88
98
EF
ENDCHAR

STARTCHAR char226
ENCODING 226
SWIDTH 45 0
DWIDTH 9 0
BBX 8 11 0 0
BITMAP
08
14
14
00
3E
44
44
84
88
98
EF
ENDCHAR

STARTCHAR char227
ENCODING 227
SWIDTH 45 0
DWIDTH 9 0
BBX 8 10 0 0
BITMAP
3A
2C
00
3E
44
44
84
88
98
EF
ENDCHAR

STARTCHAR char228
ENCODING 228
SWIDTH 45 0
DWIDTH 9 0
BBX 8 9 0 0
BITMAP
12
00
3D
42
44
84
88
98
EF
ENDCHAR

STARTCHAR char229
ENCODING 229
SWIDTH 45 0
DWIDTH 9 0
BBX 8 11 0 0
BITMAP
1E
12
1E
00
3E
44
44
84
88
98
EF
ENDCHAR

STARTCHAR char230
ENCODING 230
SWIDTH 50 0
DWIDTH 10 0
BBX 10 7 0 0
BITMAP
1B80
6680
4480
8F00
8E00
9800
EF80
ENDCHAR

STARTCHAR char231
ENCODING 231
SWIDTH 30 0
DWIDTH 6 0
BBX 7 10 0 -3
BITMAP
1C
24
48
90
80
C6
F8
40
40
80
ENDCHAR

STARTCHAR char232
ENCODING 232
SWIDTH 25 0
DWIDTH 5 0
BBX 5 11 0 0
BITMAP
60
20
10
00
30
50
90
A0
C0
80
F0
ENDCHAR

STARTCHAR char233
ENCODING 233
SWIDTH 25 0
DWIDTH 5 0
BBX 5 11 0 0
BITMAP
18
10
20
00
30
50
90
A0
C0
80
F0
ENDCHAR

STARTCHAR char234
ENCODING 234
SWIDTH 25 0
DWIDTH 5 0
BBX 5 11 0 0
BITMAP
10
30
48
00
30
50
90
A0
C0
80
F0
ENDCHAR

STARTCHAR char235
ENCODING 235
SWIDTH 25 0
DWIDTH 5 0
BBX 5 9 0 0
BITMAP
48
00
30
50
50
A0
C0
80
F0
ENDCHAR

STARTCHAR char236
ENCODING 236
SWIDTH 20 0
DWIDTH 4 0
BBX 4 11 0 0
BITMAP
40
40
20
00
20
40
40
40
80
80
E0
ENDCHAR

STARTCHAR char237
ENCODING 237
SWIDTH 20 0
DWIDTH 4 0
BBX 4 11 0 0
BITMAP
10
20
20
00
20
40
40
40
80
80
E0
ENDCHAR

STARTCHAR char238
ENCODING 238
SWIDTH 20 0
DWIDTH 4 0
BBX 4 11 0 0
BITMAP
20
50
50
00
20
40
40
40
80
80
E0
ENDCHAR

STARTCHAR char239
ENCODING 239
SWIDTH 20 0
DWIDTH 4 0
BBX 4 9 0 0
BITMAP
50
00
20
40
40
40
80
80
E0
ENDCHAR

STARTCHAR char241
ENCODING 241
SWIDTH 40 0
DWIDTH 8 0
BBX 8 10 0 0
BITMAP
3E
00
00
44
5C
64
A8
D8
D0
9F
ENDCHAR

STARTCHAR char242
ENCODING 242
SWIDTH 35 0
DWIDTH 7 0
BBX 7 11 0 0
BITMAP
30
10
10
08
38
58
58
98
9E
90
E0
ENDCHAR

STARTCHAR char243
ENCODING 243
SWIDTH 35 0
DWIDTH 7 0
BBX 7 11 0 0
BITMAP
0C
08
10
08
38
58
58
98
9E
90
E0
ENDCHAR

STARTCHAR char244
ENCODING 244
SWIDTH 35 0
DWIDTH 7 0
BBX 7 11 0 0
BITMAP
08
18
24
08
38
58
58
98
9E
90
E0
ENDCHAR

STARTCHAR char245
ENCODING 245
SWIDTH 35 0
DWIDTH 7 0
BBX 7 10 0 0
BITMAP
3C
00
08
38
58
58
98
9E
90
E0
ENDCHAR

STARTCHAR char246
ENCODING 246
SWIDTH 35 0
DWIDTH 7 0
BBX 7 9 0 0
BITMAP
3C
08
38
58
58
98
9E
90
E0
ENDCHAR

STARTCHAR char247
ENCODING 247
SWIDTH 45 0
DWIDTH 9 0
BBX 9 7 0 1
BITMAP
1800
1800
0000
FF80
0000
1800
1800
ENDCHAR

STARTCHAR char248
ENCODING 248
SWIDTH 35 0
DWIDTH 7 0
BBX 7 9 0 -1
BITMAP
0A
3C
5C
54
AC
AC
C8
F0
80
ENDCHAR

STARTCHAR char249
ENCODING 249
SWIDTH 40 0
DWIDTH 8 0
BBX 8 11 0 0
BITMAP
30
10
08
00
64
44
4C
48
88
88
FE
ENDCHAR

STARTCHAR char250
ENCODING 250
SWIDTH 40 0
DWIDTH 8 0
BBX 8 11 0 0
BITMAP
04
08
08
00
64
44
4C
48
88
88
FE
ENDCHAR

STARTCHAR char251
ENCODING 251
SWIDTH 40 0
DWIDTH 8 0
BBX 8 11 0 0
BITMAP
08
18
14
00
64
44
4C
48
88
88
FE
ENDCHAR

STARTCHAR char252
ENCODING 252
SWIDTH 40 0
DWIDTH 8 0
BBX 8 9 0 0
BITMAP
14
00
64
44
44
48
88
88
FE
ENDCHAR

STARTCHAR char255
ENCODING 255
SWIDTH 40 0
DWIDTH 8 0
BBX 8 12 0 -3
BITMAP
34
00
44
44
44
48
88
88
F6
18
60
E0
ENDCHAR
ENDFONT
